<svg width="188" height="197" viewBox="0 0 188 197" fill="none" xmlns="http://www.w3.org/2000/svg">
<path d="M86.331 68.6194L79.1123 68.5908L78.9196 104.497C78.8951 109.059 78.0307 112.899 76.3264 116.018C73.2976 121.381 68.1895 124.048 61.002 124.019C57.877 124.007 55.2235 123.497 53.0414 122.488C49.7998 120.913 48.1862 118.781 48.2006 116.094C48.2037 115.531 48.3006 114.938 48.4915 114.314C49.2525 112.254 50.758 111.229 53.008 111.238C54.258 111.243 55.3192 111.497 56.1915 112C57.3749 112.755 58.2095 114.477 58.695 117.167C58.8167 117.792 58.9392 118.261 59.0625 118.574C59.4889 120.638 60.5459 121.674 62.2333 121.681C63.2958 121.685 64.1727 121.344 64.8639 120.66C66.5604 118.979 67.432 113.795 67.4786 105.107L67.6749 68.5455L59.2375 68.5121L59.2511 65.9809L86.3446 66.0882L86.331 68.6194ZM120.636 122.474L90.4488 122.355L90.4624 119.824L97.9624 119.853L98.2372 68.6665L90.7373 68.6368L90.7508 66.1056L136.5 66.2867L136.779 84.288L134.341 84.2783L132.593 78.0839C132.594 78.0214 132.563 77.9587 132.501 77.896C130.596 71.8259 127.018 68.7805 121.768 68.7597L109.768 68.7122L109.643 92.0556L128.112 92.1287L128.097 94.9412L109.628 94.868L109.494 119.899L120.65 119.943L120.636 122.474Z" fill="#076FBD"/>
<path d="M118.534 111.669L55 83.3668" stroke="black" stroke-opacity="0.25" stroke-width="11" stroke-linejoin="round"/>
</svg>
